<svg version="1.1" id="Layer_1" xmlns="http://www.w3.org/2000/svg" xmlns:xlink="http://www.w3.org/1999/xlink" x="0px" y="0px"
	 width="100%" viewBox="0 0 300 100" enable-background="new 0 0 300 100" xml:space="preserve">
<path fill="#000000" opacity="1.000000" stroke="none" 
	d="
M204.000000,101.000000 
	C136.000015,101.000000 68.500038,101.000000 1.000045,101.000000 
	C1.000030,67.666695 1.000030,34.333393 1.000015,1.000068 
	C100.999939,1.000045 200.999878,1.000045 300.999878,1.000023 
	C300.999908,34.333263 300.999908,67.666527 300.999939,100.999893 
	C268.833344,101.000000 236.666672,101.000000 204.000000,101.000000 
M64.017281,16.019102 
	C63.371368,15.346555 62.761051,14.138929 62.073433,14.093184 
	C58.933445,13.884288 55.771763,14.001461 52.787838,14.001461 
	C41.030174,40.620975 29.361301,67.039467 17.452986,94.000053 
	C20.511654,94.000053 22.579018,93.647484 24.474945,94.067947 
	C29.607655,95.206238 31.459530,92.030464 32.972359,88.159470 
	C34.702965,83.731255 36.459530,79.313179 38.111095,75.128189 
	C51.374027,75.128189 64.004089,75.128189 76.376770,75.128189 
	C79.058060,81.507751 81.655090,87.686836 84.233803,93.822327 
	C88.537155,93.822327 92.649574,93.822327 97.217491,93.822327 
	C92.725929,83.232635 88.393799,72.942986 84.000824,62.679382 
	C77.454147,47.383942 70.864517,32.106884 64.017281,16.019102 
M213.766891,40.006149 
	C207.814255,38.917404 203.560989,41.255161 199.552444,45.730499 
	C194.685440,51.164284 188.962662,55.831566 182.902161,61.491665 
	C182.902161,43.077694 182.902161,25.687872 182.902161,8.238940 
	C179.449265,8.238940 176.378342,8.238940 173.229919,8.238940 
	C173.229919,36.878838 173.229919,65.279205 173.229919,93.769440 
	C176.534714,93.769440 179.605530,93.769440 183.077759,93.769440 
	C183.077759,85.507339 183.077759,77.464859 183.077759,68.060051 
	C188.783401,74.332054 193.530029,79.744217 198.492126,84.951027 
	C203.682404,90.397263 208.411896,97.116318 218.372253,93.091408 
	C213.166122,81.659126 202.809235,74.139580 194.486115,64.643890 
	C198.778183,60.835629 202.990540,57.599888 206.576218,53.776443 
	C210.213501,49.897995 213.231934,45.439159 216.491470,41.272762 
	C215.899292,40.908649 215.233795,40.499470 213.766891,40.006149 
M106.999939,90.343979 
	C108.482552,98.312225 114.326424,91.751709 117.999939,94.819923 
	C117.999939,84.432266 117.831627,75.310837 118.092339,66.201675 
	C118.182152,63.063332 118.884705,59.762527 120.105812,56.873405 
	C122.790146,50.522251 130.116119,47.303787 136.851715,49.012241 
	C140.903687,50.040009 143.997345,55.648220 143.999176,61.986301 
	C144.002228,72.576431 144.000015,83.166557 144.000015,93.735626 
	C147.939163,93.735626 151.341721,93.735626 154.000290,93.735626 
	C154.000290,81.099388 154.243423,68.728653 153.925095,56.372387 
	C153.659760,46.073418 145.927277,39.303299 135.648834,38.913162 
	C128.439789,38.639534 122.360901,40.709473 116.787827,46.394840 
	C116.787827,43.714527 116.787827,41.967022 116.787827,40.264725 
	C113.412628,40.264725 110.332809,40.264725 106.999939,40.264725 
	C106.999939,56.810158 106.999939,73.092094 106.999939,90.343979 
M245.438309,55.046120 
	C248.891922,53.030930 252.125107,50.177719 255.850998,49.197720 
	C261.385925,47.741909 258.030273,43.845104 258.979279,41.199478 
	C257.068024,40.571545 254.871124,39.013527 253.300903,39.495827 
	C249.140717,40.773651 245.251541,42.933739 241.218246,44.759193 
	C241.045990,43.194572 240.875198,41.643204 240.728622,40.311905 
	C237.226044,40.311905 234.143173,40.311905 231.705734,40.311905 
	C231.705734,58.294731 231.705734,75.963203 231.705734,93.801025 
	C235.478790,93.801025 238.545670,93.801025 242.000031,93.801025 
	C242.000031,85.499039 241.657700,77.369751 242.133499,69.288635 
	C242.402008,64.728012 244.017181,60.246674 245.438309,55.046120 
M270.577820,51.905411 
	C271.958130,51.197872 273.562592,50.738735 274.675385,49.734715 
	C277.626526,47.072006 280.417236,44.223423 283.163544,41.345509 
	C284.296570,40.158161 286.229980,38.348640 285.929199,37.443642 
	C285.087830,34.911972 283.583801,31.003826 281.782806,30.672247 
	C275.034790,29.429861 268.063843,29.398325 261.166016,28.912128 
	C261.336304,37.363159 265.998901,39.117805 273.032562,37.847527 
	C265.893738,46.577084 265.706238,47.546154 270.577820,51.905411 
z"/>
<path fill="#FEFEFE" opacity="1.000000" stroke="none" 
	d="
M64.155220,16.420553 
	C70.864517,32.106884 77.454147,47.383942 84.000824,62.679382 
	C88.393799,72.942986 92.725929,83.232635 97.217491,93.822327 
	C92.649574,93.822327 88.537155,93.822327 84.233803,93.822327 
	C81.655090,87.686836 79.058060,81.507751 76.376770,75.128189 
	C64.004089,75.128189 51.374027,75.128189 38.111095,75.128189 
	C36.459530,79.313179 34.702965,83.731255 32.972359,88.159470 
	C31.459530,92.030464 29.607655,95.206238 24.474945,94.067947 
	C22.579018,93.647484 20.511654,94.000053 17.452986,94.000053 
	C29.361301,67.039467 41.030174,40.620975 52.787838,14.001461 
	C55.771763,14.001461 58.933445,13.884288 62.073433,14.093184 
	C62.761051,14.138929 63.371368,15.346555 64.155220,16.420553 
M53.551216,63.999943 
	C59.523647,63.999943 65.496078,63.999943 71.808853,63.999943 
	C67.102142,52.296993 62.473236,40.787498 57.543266,28.529423 
	C52.362522,40.818577 47.570713,52.185143 42.589943,63.999943 
	C46.605213,63.999943 49.590385,63.999943 53.551216,63.999943 
z"/>
<path fill="#FEFEFE" opacity="1.000000" stroke="none" 
	d="
M214.167603,40.048218 
	C215.233795,40.499470 215.899292,40.908649 216.491470,41.272762 
	C213.231934,45.439159 210.213501,49.897995 206.576218,53.776443 
	C202.990540,57.599888 198.778183,60.835629 194.486115,64.643890 
	C202.809235,74.139580 213.166122,81.659126 218.372253,93.091408 
	C208.411896,97.116318 203.682404,90.397263 198.492126,84.951027 
	C193.530029,79.744217 188.783401,74.332054 183.077759,68.060051 
	C183.077759,77.464859 183.077759,85.507339 183.077759,93.769440 
	C179.605530,93.769440 176.534714,93.769440 173.229919,93.769440 
	C173.229919,65.279205 173.229919,36.878838 173.229919,8.238940 
	C176.378342,8.238940 179.449265,8.238940 182.902161,8.238940 
	C182.902161,25.687872 182.902161,43.077694 182.902161,61.491665 
	C188.962662,55.831566 194.685440,51.164284 199.552444,45.730499 
	C203.560989,41.255161 207.814255,38.917404 214.167603,40.048218 
z"/>
<path fill="#FEFEFE" opacity="1.000000" stroke="none" 
	d="
M106.999939,89.859009 
	C106.999939,73.092094 106.999939,56.810158 106.999939,40.264725 
	C110.332809,40.264725 113.412628,40.264725 116.787827,40.264725 
	C116.787827,41.967022 116.787827,43.714527 116.787827,46.394840 
	C122.360901,40.709473 128.439789,38.639534 135.648834,38.913162 
	C145.927277,39.303299 153.659760,46.073418 153.925095,56.372387 
	C154.243423,68.728653 154.000290,81.099388 154.000290,93.735626 
	C151.341721,93.735626 147.939163,93.735626 144.000015,93.735626 
	C144.000015,83.166557 144.002228,72.576431 143.999176,61.986301 
	C143.997345,55.648220 140.903687,50.040009 136.851715,49.012241 
	C130.116119,47.303787 122.790146,50.522251 120.105812,56.873405 
	C118.884705,59.762527 118.182152,63.063332 118.092339,66.201675 
	C117.831627,75.310837 117.999939,84.432266 117.999939,94.819923 
	C114.326424,91.751709 108.482552,98.312225 106.999939,89.859009 
z"/>
<path fill="#FEFEFE" opacity="1.000000" stroke="none" 
	d="
M245.232040,55.387871 
	C244.017181,60.246674 242.402008,64.728012 242.133499,69.288635 
	C241.657700,77.369751 242.000031,85.499039 242.000031,93.801025 
	C238.545670,93.801025 235.478790,93.801025 231.705734,93.801025 
	C231.705734,75.963203 231.705734,58.294731 231.705734,40.311905 
	C234.143173,40.311905 237.226044,40.311905 240.728622,40.311905 
	C240.875198,41.643204 241.045990,43.194572 241.218246,44.759193 
	C245.251541,42.933739 249.140717,40.773651 253.300903,39.495827 
	C254.871124,39.013527 257.068024,40.571545 258.979279,41.199478 
	C258.030273,43.845104 261.385925,47.741909 255.850998,49.197720 
	C252.125107,50.177719 248.891922,53.030930 245.232040,55.387871 
z"/>
<path fill="#FB7000" opacity="1.000000" stroke="none" 
	d="
M270.263214,51.675781 
	C265.706238,47.546154 265.893738,46.577084 273.032562,37.847527 
	C265.998901,39.117805 261.336304,37.363159 261.166016,28.912128 
	C268.063843,29.398325 275.034790,29.429861 281.782806,30.672247 
	C283.583801,31.003826 285.087830,34.911972 285.929199,37.443642 
	C286.229980,38.348640 284.296570,40.158161 283.163544,41.345509 
	C280.417236,44.223423 277.626526,47.072006 274.675385,49.734715 
	C273.562592,50.738735 271.958130,51.197872 270.263214,51.675781 
z"/>
<path fill="#000000" opacity="1.000000" stroke="none" 
	d="
M53.063389,63.999943 
	C49.590385,63.999943 46.605213,63.999943 42.589943,63.999943 
	C47.570713,52.185143 52.362522,40.818577 57.543266,28.529423 
	C62.473236,40.787498 67.102142,52.296993 71.808853,63.999943 
	C65.496078,63.999943 59.523647,63.999943 53.063389,63.999943 
z"/>
</svg>