<svg version="1.1" id="Layer_1" xmlns="http://www.w3.org/2000/svg" xmlns:xlink="http://www.w3.org/1999/xlink" x="0px" y="0px"
	 width="100%" viewBox="0 0 189 63" enable-background="new 0 0 189 63" xml:space="preserve">
<path fill="#000000" opacity="1.000000" stroke="none" 
	d="
M178.036743,64.000000 
	C118.699173,64.000000 59.867134,64.000000 1.017545,64.000000 
	C1.017545,43.012169 1.017545,22.024321 1.017545,1.018236 
	C63.986454,1.018236 126.972916,1.018236 189.979691,1.018236 
	C189.979691,21.985985 189.979691,42.971992 189.979691,64.000000 
	C186.180817,64.000000 182.361542,64.000000 178.036743,64.000000 
M170.392197,25.999643 
	C166.827866,28.873590 168.483643,31.411688 171.321106,34.933743 
	C174.165237,31.846043 176.873474,29.178087 179.215652,26.220263 
	C180.072739,25.137917 180.809784,22.923683 180.270859,22.015421 
	C179.459915,20.648764 177.508560,19.227053 175.989044,19.166882 
	C172.946213,19.046389 169.867493,19.832314 166.302460,20.311367 
	C166.302460,20.693306 166.302460,22.247404 166.302460,23.516325 
	C167.908142,24.178476 169.259796,24.735870 170.392197,25.999643 
z"/>
<path fill="#FB7000" opacity="1.000000" stroke="none" 
	d="
M170.501831,25.646454 
	C169.259796,24.735870 167.908142,24.178476 166.302460,23.516325 
	C166.302460,22.247404 166.302460,20.693306 166.302460,20.311367 
	C169.867493,19.832314 172.946213,19.046389 175.989044,19.166882 
	C177.508560,19.227053 179.459915,20.648764 180.270859,22.015421 
	C180.809784,22.923683 180.072739,25.137917 179.215652,26.220263 
	C176.873474,29.178087 174.165237,31.846043 171.321106,34.933743 
	C168.483643,31.411688 166.827866,28.873590 170.501831,25.646454 
z"/>
</svg>