<svg version="1.1" id="Layer_1" xmlns="http://www.w3.org/2000/svg" xmlns:xlink="http://www.w3.org/1999/xlink" x="0px" y="0px"
	 width="100%" viewBox="0 0 120 120" enable-background="new 0 0 120 120" xml:space="preserve">
<path fill="#FDFDFD" opacity="1.000000" stroke="none" 
	d="
M1.000000,94.000000 
	C1.000000,63.046822 1.000000,32.093643 1.000000,1.070233 
	C40.892658,1.070233 80.785477,1.070233 121.000000,1.070233 
	C121.000000,26.353321 121.000000,51.708000 120.574028,77.531265 
	C115.074112,76.937569 110.000168,75.875298 104.990219,74.365128 
	C105.088654,70.755463 105.110535,67.593498 105.160049,64.431969 
	C105.270958,57.350552 106.733170,55.704208 113.821960,54.817944 
	C113.821960,53.613346 113.821960,52.387764 113.821960,51.133430 
	C109.441681,51.564419 105.367325,51.965305 101.289673,52.366516 
	C101.289673,59.628128 101.289673,67.249229 100.823059,74.907288 
	C98.797798,74.917236 97.239151,74.890221 95.615959,74.551826 
	C91.893921,70.240692 88.236435,66.240929 84.348373,61.989021 
	C87.848434,58.644146 91.141273,55.497292 94.972183,51.836231 
	C86.737999,49.956478 84.904221,58.024277 79.092560,60.219719 
	C79.092560,52.449146 79.092560,45.084248 79.092560,37.719353 
	C78.589409,37.447498 78.086258,37.175640 77.583115,36.903786 
	C76.704094,37.925316 75.068840,38.941654 75.061790,39.969166 
	C74.981941,51.608189 75.151344,63.248924 74.826630,74.926895 
	C72.127296,74.710236 69.855316,74.455872 67.528450,73.790192 
	C67.462914,69.062851 67.584229,64.741608 67.413612,60.431919 
	C67.079330,51.987953 60.825104,48.535366 53.221737,52.395840 
	C52.566307,52.728626 51.496746,52.299366 50.631733,52.152443 
	C49.499508,51.960136 48.379395,51.696487 47.125336,51.436874 
	C47.125336,59.539600 47.125336,66.959389 47.125336,74.364769 
	C50.011059,75.450607 51.299423,74.879776 51.277512,71.725075 
	C51.249992,67.762924 51.295097,63.750984 51.886784,59.848141 
	C52.440910,56.193062 55.169163,54.570553 58.818367,54.968132 
	C62.498955,55.369129 63.084686,58.135849 63.111225,61.162704 
	C63.150524,65.644264 63.157555,70.126106 63.087509,75.000374 
	C61.306641,76.211830 59.693336,77.468735 57.914402,77.780479 
	C43.466362,80.312401 29.890575,85.305458 16.959114,92.099503 
	C15.392307,92.922691 14.308229,94.664688 12.608267,95.984329 
	C8.477407,95.325211 4.738704,94.662605 1.000000,94.000000 
M8.942986,74.783607 
	C11.663001,75.381958 13.500360,74.479858 14.087301,71.641884 
	C15.035364,67.057800 17.808317,65.438431 22.346207,66.177025 
	C24.128887,66.467178 26.031328,66.446327 27.821529,66.179695 
	C31.933090,65.567299 34.415051,67.044594 35.377605,71.170578 
	C36.158665,74.518578 38.113838,75.887970 41.863327,74.184822 
	C37.238121,63.275391 32.707909,52.407753 28.001286,41.617062 
	C26.828478,38.928207 23.545774,38.840450 22.376808,41.491280 
	C17.563677,52.405861 12.960877,63.413193 8.942986,74.783607 
z"/>
<path fill="#FCFCFC" opacity="1.000000" stroke="none" 
	d="
M104.926224,74.813019 
	C110.000168,75.875298 115.074112,76.937569 120.574028,77.999924 
	C121.000000,81.361290 121.000000,84.722572 120.608437,88.538513 
	C114.096771,90.895905 107.976662,92.798645 101.444519,94.736015 
	C99.403915,95.041573 97.775345,95.312508 96.061707,95.133926 
	C94.916687,94.125069 93.914665,93.291527 92.786873,93.053223 
	C87.543640,91.945374 82.265587,91.002327 76.578613,89.998901 
	C70.974487,88.361130 65.943703,89.022247 60.570339,91.000000 
	C57.760452,91.333237 55.380226,91.666466 52.625038,91.999718 
	C51.500153,91.999725 50.750229,91.999710 49.969299,91.707481 
	C49.292198,91.276741 48.646099,91.138222 47.562500,90.999725 
	C45.083332,90.999733 43.041668,90.999710 40.828041,90.772278 
	C40.103935,91.029785 39.551792,91.514717 38.599686,91.999680 
	C37.133148,91.999702 36.066574,91.999695 34.772758,91.745026 
	C31.406754,92.149269 28.102669,92.409843 25.191814,93.617912 
	C23.472031,94.331665 22.374472,96.544678 20.620287,98.093414 
	C19.495762,98.068726 18.748049,98.034111 17.650673,97.950897 
	C15.867482,97.261818 14.433954,96.621330 13.000425,95.980850 
	C14.308229,94.664688 15.392307,92.922691 16.959114,92.099503 
	C29.890575,85.305458 43.466362,80.312401 57.914402,77.780479 
	C59.693336,77.468735 61.306641,76.211830 63.464767,75.060158 
	C65.149673,74.552101 66.366508,74.376808 67.583344,74.201508 
	C69.855316,74.455872 72.127296,74.710236 75.243317,74.906746 
	C77.120445,74.032135 78.786385,73.380959 79.052589,72.363548 
	C79.578552,70.353340 79.329895,68.140450 79.752502,65.997437 
	C80.568687,65.930336 81.033913,65.877159 81.780853,65.974884 
	C86.299850,69.509018 88.388016,76.241791 95.680511,74.863197 
	C97.239151,74.890221 98.797798,74.917236 101.186569,74.885986 
	C102.986534,74.822815 103.956383,74.817917 104.926224,74.813019 
z"/>
<path fill="#F9993E" opacity="1.000000" stroke="none" 
	d="
M62.000000,121.000000 
	C41.666664,121.000000 21.333328,121.000000 1.000000,121.000000 
	C1.000000,119.984489 1.000000,118.992241 1.468634,117.500053 
	C13.861270,116.665565 25.787382,116.384163 37.705868,115.910759 
	C38.843319,115.865578 39.933144,114.621414 41.436745,113.947769 
	C43.855358,114.324669 45.882301,114.687660 48.154022,115.312263 
	C52.932533,117.382591 57.466267,119.191299 62.000000,121.000000 
z"/>
<path fill="#F79847" opacity="1.000000" stroke="none" 
	d="
M121.000000,116.000000 
	C121.000000,117.654816 121.000000,119.309631 121.000000,121.000000 
	C102.312454,121.000000 83.624886,121.000000 64.712685,120.723389 
	C69.989319,118.963097 75.490585,117.479431 81.299469,116.224579 
	C83.733498,116.954834 85.881554,117.962769 87.982651,117.872879 
	C98.994987,117.401772 109.995430,116.652565 121.000000,116.000000 
z"/>
<path fill="#EB8F79" opacity="1.000000" stroke="none" 
	d="
M80.991844,115.995750 
	C75.490585,117.479431 69.989319,118.963097 64.244026,120.723389 
	C63.555553,121.000000 63.111111,121.000000 62.333332,121.000000 
	C57.466267,119.191299 52.932533,117.382591 48.479622,115.077667 
	C49.853035,114.054764 51.113403,113.187859 52.443947,113.061836 
	C57.502892,112.582672 62.587353,112.040337 67.656967,112.087860 
	C74.473015,112.151749 81.284142,112.739944 87.844856,113.356339 
	C85.392166,114.404984 83.192001,115.200363 80.991844,115.995750 
z"/>
<path fill="#FD9B2C" opacity="1.000000" stroke="none" 
	d="
M41.045078,113.933868 
	C39.933144,114.621414 38.843319,115.865578 37.705868,115.910759 
	C25.787382,116.384163 13.861270,116.665565 1.468634,117.000053 
	C1.000000,116.555557 1.000000,116.111107 1.371151,115.335953 
	C5.170761,113.348366 8.599219,111.691490 12.103853,110.411987 
	C17.359484,110.516884 22.539278,110.249969 27.716072,109.933899 
	C27.824902,109.927261 27.899080,109.353073 27.994822,109.020432 
	C28.000221,108.997223 28.008156,108.950180 28.378027,109.006073 
	C32.805141,110.393883 36.862385,111.725807 40.952137,113.276604 
	C40.984646,113.495476 41.045078,113.933868 41.045078,113.933868 
z"/>
<path fill="#F3965C" opacity="1.000000" stroke="none" 
	d="
M121.000000,100.000000 
	C121.000000,101.389000 121.000000,102.777992 120.627609,104.585129 
	C119.510536,105.015923 118.765862,105.028587 117.930084,104.647453 
	C115.363708,103.871170 112.871284,103.075188 110.416054,103.176895 
	C99.056755,103.647400 87.710266,104.426353 76.351135,104.903145 
	C75.262215,104.948845 74.117653,103.669136 73.349899,102.876068 
	C78.131874,101.479828 82.562881,100.212234 87.081329,99.343384 
	C88.825821,100.161301 90.491066,100.970131 92.138580,100.935486 
	C101.761360,100.733147 111.379974,100.333221 121.000000,100.000000 
z"/>
<path fill="#F99944" opacity="1.000000" stroke="none" 
	d="
M1.000000,107.000000 
	C1.000000,106.250000 1.000000,105.500000 1.454281,104.375153 
	C9.636218,103.665199 17.367905,103.394951 25.086576,102.915268 
	C26.083670,102.853302 27.013412,101.707558 28.369755,100.954330 
	C31.364397,101.283226 33.963638,101.721649 36.739155,102.482559 
	C37.940483,102.951813 38.965538,103.098579 40.245621,103.427063 
	C40.668324,103.733139 40.835995,103.857498 40.929359,104.355927 
	C37.997883,105.486610 35.115143,106.160583 32.293991,107.033585 
	C30.809807,107.492859 29.433290,108.300079 28.008156,108.950180 
	C28.008156,108.950180 28.000221,108.997223 27.617939,109.004761 
	C22.995848,106.874626 18.706127,105.408958 13.723628,107.874397 
	C9.223297,107.474136 5.111649,107.237068 1.000000,107.000000 
z"/>
<path fill="#FA993D" opacity="1.000000" stroke="none" 
	d="
M81.299469,116.224579 
	C83.192001,115.200363 85.392166,114.404984 88.256050,113.335167 
	C91.924118,112.668098 94.928474,112.275452 98.220009,112.196686 
	C106.004799,112.340385 113.502396,112.170189 121.000000,112.000000 
	C121.000000,113.066673 121.000000,114.133339 121.000000,115.600006 
	C109.995430,116.652565 98.994987,117.401772 87.982651,117.872879 
	C85.881554,117.962769 83.733498,116.954834 81.299469,116.224579 
z"/>
<path fill="#F69852" opacity="1.000000" stroke="none" 
	d="
M121.000000,99.600006 
	C111.379974,100.333221 101.761360,100.733147 92.138580,100.935486 
	C90.491066,100.970131 88.825821,100.161301 87.389725,99.148834 
	C90.456047,97.564850 93.301414,96.574142 96.146774,95.583435 
	C97.775345,95.312508 99.403915,95.041573 101.622696,95.095078 
	C103.359367,95.914185 104.516792,96.854813 105.650398,96.826958 
	C110.770615,96.701103 115.884094,96.301186 121.000000,96.000000 
	C121.000000,97.066673 121.000000,98.133339 121.000000,99.600006 
z"/>
<path fill="#FC9B2E" opacity="1.000000" stroke="none" 
	d="
M121.000000,111.562500 
	C113.502396,112.170189 106.004799,112.340385 98.447906,111.960434 
	C99.944153,110.638748 101.499687,109.867203 103.465225,109.075470 
	C108.590546,107.717278 113.305862,106.379257 118.021179,105.041245 
	C118.765862,105.028587 119.510536,105.015923 120.627609,105.001633 
	C121.000000,107.041664 121.000000,109.083336 121.000000,111.562500 
z"/>
<path fill="#FB9B39" opacity="1.000000" stroke="none" 
	d="
M27.974354,101.063843 
	C27.013412,101.707558 26.083670,102.853302 25.086576,102.915268 
	C17.367905,103.394951 9.636218,103.665199 1.454281,104.000153 
	C1.000000,103.250000 1.000000,102.500000 1.439389,101.374802 
	C6.469443,100.660332 11.070133,100.410927 15.641746,99.900887 
	C16.488119,99.806458 17.217146,98.660255 18.000334,97.999489 
	C18.748049,98.034111 19.495762,98.068726 20.738853,98.178726 
	C21.234232,98.254105 21.513315,98.167198 21.677134,98.463211 
	C22.562426,99.042480 23.283897,99.325737 24.359426,99.632042 
	C25.186443,99.667747 25.659403,99.680405 26.198895,100.024109 
	C26.875359,100.446564 27.485291,100.537956 28.061646,100.737038 
	C28.028069,100.844727 27.974354,101.063843 27.974354,101.063843 
z"/>
<path fill="#F89B49" opacity="1.000000" stroke="none" 
	d="
M121.000000,95.562500 
	C115.884094,96.301186 110.770615,96.701103 105.650398,96.826958 
	C104.516792,96.854813 103.359367,95.914185 102.034737,95.060455 
	C107.976662,92.798645 114.096771,90.895905 120.608437,88.996582 
	C121.000000,91.041664 121.000000,93.083336 121.000000,95.562500 
z"/>
<path fill="#FE9F30" opacity="1.000000" stroke="none" 
	d="
M17.650673,97.950897 
	C17.217146,98.660255 16.488119,99.806458 15.641746,99.900887 
	C11.070133,100.410927 6.469443,100.660332 1.439389,100.999802 
	C1.000000,98.958336 1.000000,96.916664 1.000000,94.437500 
	C4.738704,94.662605 8.477407,95.325211 12.608269,95.984329 
	C14.433954,96.621330 15.867482,97.261818 17.650673,97.950897 
z"/>
<path fill="#F6974E" opacity="1.000000" stroke="none" 
	d="
M1.000000,107.444168 
	C5.111649,107.237068 9.223297,107.474136 13.576957,108.130814 
	C13.221873,109.045158 12.624778,109.539886 12.027680,110.034607 
	C8.599219,111.691490 5.170761,113.348366 1.371151,115.002625 
	C1.000000,112.629440 1.000000,110.258888 1.000000,107.444168 
z"/>
<path fill="#151515" opacity="1.000000" stroke="none" 
	d="
M8.611864,74.585014 
	C12.960877,63.413193 17.563677,52.405861 22.376808,41.491280 
	C23.545774,38.840450 26.828478,38.928207 28.001286,41.617062 
	C32.707909,52.407753 37.238121,63.275391 41.863327,74.184822 
	C38.113838,75.887970 36.158665,74.518578 35.377605,71.170578 
	C34.415051,67.044594 31.933090,65.567299 27.821529,66.179695 
	C26.031328,66.446327 24.128887,66.467178 22.346207,66.177025 
	C17.808317,65.438431 15.035364,67.057800 14.087301,71.641884 
	C13.500360,74.479858 11.663001,75.381958 8.611864,74.585014 
M23.600809,61.984562 
	C26.020533,61.984562 28.440258,61.984562 31.568104,61.984562 
	C29.370703,56.480217 27.454115,51.679295 25.062868,45.689373 
	C22.537182,51.617626 20.508736,56.378769 18.240900,61.701797 
	C20.200008,61.826309 21.444798,61.905422 23.600809,61.984562 
z"/>
<path fill="#161616" opacity="1.000000" stroke="none" 
	d="
M79.401527,66.011368 
	C79.329895,68.140450 79.578552,70.353340 79.052589,72.363548 
	C78.786385,73.380959 77.120445,74.032135 75.670670,74.869049 
	C75.151344,63.248924 74.981941,51.608189 75.061790,39.969166 
	C75.068840,38.941654 76.704094,37.925316 77.583115,36.903786 
	C78.086258,37.175640 78.589409,37.447498 79.092560,37.719353 
	C79.092560,45.084248 79.092560,52.449146 79.092560,60.219719 
	C84.904221,58.024277 86.737999,49.956478 94.972183,51.836231 
	C91.141273,55.497292 87.848434,58.644146 84.348373,61.989021 
	C88.236435,66.240929 91.893921,70.240692 95.615959,74.551826 
	C88.388016,76.241791 86.299850,69.509018 81.635437,65.672806 
	C80.713715,64.816696 80.219131,64.413582 79.401527,63.747189 
	C79.401527,64.778358 79.401527,65.394867 79.401527,66.011368 
z"/>
<path fill="#161616" opacity="1.000000" stroke="none" 
	d="
M67.528450,73.790192 
	C66.366508,74.376808 65.149673,74.552101 63.555580,74.667610 
	C63.157555,70.126106 63.150524,65.644264 63.111225,61.162704 
	C63.084686,58.135849 62.498955,55.369129 58.818367,54.968132 
	C55.169163,54.570553 52.440910,56.193062 51.886784,59.848141 
	C51.295097,63.750984 51.249992,67.762924 51.277512,71.725075 
	C51.299423,74.879776 50.011059,75.450607 47.125336,74.364769 
	C47.125336,66.959389 47.125336,59.539600 47.125336,51.436874 
	C48.379395,51.696487 49.499508,51.960136 50.631733,52.152443 
	C51.496746,52.299366 52.566307,52.728626 53.221737,52.395840 
	C60.825104,48.535366 67.079330,51.987953 67.413612,60.431919 
	C67.584229,64.741608 67.462914,69.062851 67.528450,73.790192 
z"/>
<path fill="#181818" opacity="1.000000" stroke="none" 
	d="
M104.990219,74.365128 
	C103.956383,74.817917 102.986534,74.822815 101.653183,74.849014 
	C101.289673,67.249229 101.289673,59.628128 101.289673,52.366516 
	C105.367325,51.965305 109.441681,51.564419 113.821960,51.133430 
	C113.821960,52.387764 113.821960,53.613346 113.821960,54.817944 
	C106.733170,55.704208 105.270958,57.350552 105.160049,64.431969 
	C105.110535,67.593498 105.088654,70.755463 104.990219,74.365128 
z"/>
<path fill="#FDFDFD" opacity="1.000000" stroke="none" 
	d="
M21.513315,98.167198 
	C21.513315,98.167198 21.234232,98.254105 21.115665,98.168793 
	C22.374472,96.544678 23.472031,94.331665 25.191814,93.617912 
	C28.102669,92.409843 31.406754,92.149269 34.553391,92.013657 
	C33.424847,93.186295 32.288425,93.835640 31.152008,94.484993 
	C31.281157,95.009895 31.410305,95.534798 31.539454,96.059700 
	C38.586868,95.658958 45.635880,95.278992 52.672623,94.739166 
	C52.850754,94.725494 52.893902,92.952293 53.000000,91.999695 
	C55.380226,91.666466 57.760452,91.333237 60.586845,91.415131 
	C62.087246,92.552338 63.090481,93.786201 64.205597,93.897301 
	C67.152992,94.190979 70.160660,93.832977 73.122208,94.044365 
	C76.242249,94.267044 77.364090,92.937408 77.000000,90.000305 
	C82.265587,91.002327 87.543640,91.945374 92.786873,93.053223 
	C93.914665,93.291527 94.916687,94.125069 96.061707,95.133926 
	C93.301414,96.574142 90.456047,97.564850 87.302292,98.750092 
	C82.562881,100.212234 78.131874,101.479828 72.957825,102.866119 
	C67.478989,104.355217 62.743187,105.725624 57.674324,107.161880 
	C56.273098,107.468750 55.204933,107.709770 54.022362,107.711014 
	C53.604885,107.335686 53.301819,107.200150 52.654152,106.907967 
	C48.540924,105.828171 44.772297,104.905022 41.003670,103.981873 
	C40.835995,103.857498 40.668324,103.733139 40.099899,103.145721 
	C38.653728,102.508469 37.608303,102.334274 36.562881,102.160072 
	C33.963638,101.721649 31.364397,101.283226 28.369755,100.954330 
	C27.974354,101.063843 28.028069,100.844727 27.994289,100.493271 
	C27.351126,99.992226 26.741745,99.842644 26.132362,99.693054 
	C25.659403,99.680405 25.186443,99.667747 24.267929,99.317665 
	C23.052689,98.709221 22.283003,98.438210 21.513315,98.167198 
z"/>
<path fill="#FEFEFE" opacity="1.000000" stroke="none" 
	d="
M52.625038,91.999718 
	C52.893902,92.952293 52.850754,94.725494 52.672623,94.739166 
	C45.635880,95.278992 38.586868,95.658958 31.539454,96.059700 
	C31.410305,95.534798 31.281157,95.009895 31.152008,94.484993 
	C32.288425,93.835640 33.424847,93.186295 34.780632,92.268326 
	C36.066574,91.999695 37.133148,91.999702 38.897369,91.978760 
	C40.063343,91.638435 40.531670,91.319061 41.000000,90.999695 
	C43.041668,90.999710 45.083332,90.999733 47.730240,91.244522 
	C48.890419,91.659424 49.445362,91.829559 50.000305,91.999695 
	C50.750229,91.999710 51.500153,91.999725 52.625038,91.999718 
z"/>
<path fill="#FEFEFE" opacity="1.000000" stroke="none" 
	d="
M76.578613,89.998901 
	C77.364090,92.937408 76.242249,94.267044 73.122208,94.044365 
	C70.160660,93.832977 67.152992,94.190979 64.205597,93.897301 
	C63.090481,93.786201 62.087246,92.552338 61.016506,91.415131 
	C65.943703,89.022247 70.974487,88.361130 76.578613,89.998901 
z"/>
<path fill="#FDFDFD" opacity="1.000000" stroke="none" 
	d="
M40.828041,90.772270 
	C40.531670,91.319061 40.063343,91.638435 39.297329,91.978729 
	C39.551792,91.514717 40.103935,91.029785 40.828041,90.772270 
z"/>
<path fill="#FDFDFD" opacity="1.000000" stroke="none" 
	d="
M49.969303,91.707474 
	C49.445362,91.829559 48.890419,91.659424 48.167740,91.244492 
	C48.646099,91.138222 49.292198,91.276741 49.969303,91.707474 
z"/>
<path fill="#F9F7F8" opacity="1.000000" stroke="none" 
	d="
M79.752502,65.997437 
	C79.401527,65.394867 79.401527,64.778358 79.401527,63.747189 
	C80.219131,64.413582 80.713715,64.816696 81.353714,65.521896 
	C81.033913,65.877159 80.568687,65.930336 79.752502,65.997437 
z"/>
<path fill="#EE916F" opacity="1.000000" stroke="none" 
	d="
M54.136768,107.950790 
	C55.204933,107.709770 56.273098,107.468750 57.773293,107.548996 
	C59.544598,108.246796 60.894279,108.982536 62.221535,108.944092 
	C75.056633,108.572319 87.887184,108.043671 100.722321,107.673111 
	C101.485626,107.651077 102.276939,108.599052 103.055222,109.095657 
	C101.499687,109.867203 99.944153,110.638748 98.160721,111.646553 
	C94.928474,112.275452 91.924118,112.668098 88.508575,113.081909 
	C81.284142,112.739944 74.473015,112.151749 67.656967,112.087860 
	C62.587353,112.040337 57.502892,112.582672 52.443947,113.061836 
	C51.113403,113.187859 49.853035,114.054764 48.234848,114.816040 
	C45.882301,114.687660 43.855358,114.324669 41.436745,113.947769 
	C41.045078,113.933868 40.984646,113.495476 41.138855,112.947838 
	C45.199696,110.935318 49.106319,109.470436 53.294189,107.997742 
	C53.762547,107.976875 53.949657,107.963829 54.136768,107.950790 
z"/>
<path fill="#F69851" opacity="1.000000" stroke="none" 
	d="
M53.012947,108.005554 
	C49.106319,109.470436 45.199696,110.935318 41.106346,112.728966 
	C36.862385,111.725807 32.805141,110.393883 28.378027,109.006073 
	C29.433290,108.300079 30.809807,107.492859 32.293991,107.033585 
	C35.115143,106.160583 37.997883,105.486610 40.929359,104.355927 
	C44.772297,104.905022 48.540924,105.828171 52.655640,107.142914 
	C53.001724,107.534515 53.012947,108.005554 53.012947,108.005554 
z"/>
<path fill="#FF9D12" opacity="1.000000" stroke="none" 
	d="
M12.103856,110.411987 
	C12.624778,109.539886 13.221873,109.045158 13.965639,108.294006 
	C18.706127,105.408958 22.995848,106.874626 27.612539,109.027969 
	C27.899080,109.353073 27.824902,109.927261 27.716072,109.933899 
	C22.539278,110.249969 17.359484,110.516884 12.103856,110.411987 
z"/>
<path fill="#F09466" opacity="1.000000" stroke="none" 
	d="
M103.465225,109.075470 
	C102.276939,108.599052 101.485626,107.651077 100.722321,107.673111 
	C87.887184,108.043671 75.056633,108.572319 62.221535,108.944092 
	C60.894279,108.982536 59.544598,108.246796 58.106354,107.483147 
	C62.743187,105.725624 67.478989,104.355217 72.606857,102.994766 
	C74.117653,103.669136 75.262215,104.948845 76.351135,104.903145 
	C87.710266,104.426353 99.056755,103.647400 110.416054,103.176895 
	C112.871284,103.075188 115.363708,103.871170 117.930084,104.647446 
	C113.305862,106.379257 108.590546,107.717278 103.465225,109.075470 
z"/>
<path fill="#F9F7F8" opacity="1.000000" stroke="none" 
	d="
M36.739155,102.482559 
	C37.608303,102.334274 38.653728,102.508469 39.844872,102.964005 
	C38.965538,103.098579 37.940483,102.951813 36.739155,102.482559 
z"/>
<path fill="#F9F7F8" opacity="1.000000" stroke="none" 
	d="
M26.198895,100.024109 
	C26.741745,99.842644 27.351126,99.992226 28.027866,100.385582 
	C27.485291,100.537956 26.875359,100.446564 26.198895,100.024109 
z"/>
<path fill="#F9F7F8" opacity="1.000000" stroke="none" 
	d="
M21.677134,98.463211 
	C22.283003,98.438210 23.052689,98.709221 23.913872,99.294609 
	C23.283897,99.325737 22.562426,99.042480 21.677134,98.463211 
z"/>
<path fill="#EEEEEE" opacity="1.000000" stroke="none" 
	d="
M23.145199,61.984550 
	C21.444798,61.905422 20.200008,61.826309 18.240900,61.701797 
	C20.508736,56.378769 22.537182,51.617626 25.062868,45.689373 
	C27.454115,51.679295 29.370703,56.480217 31.568104,61.984562 
	C28.440258,61.984562 26.020533,61.984562 23.145199,61.984550 
z"/>
<path fill="#F09466" opacity="1.000000" stroke="none" 
	d="
M53.294189,107.997742 
	C53.012947,108.005554 53.001724,107.534515 53.000240,107.299561 
	C53.301819,107.200150 53.604885,107.335686 54.022362,107.711006 
	C53.949657,107.963829 53.762547,107.976875 53.294189,107.997742 
z"/>
</svg>